<?xml version="1.0" ?><svg height="32" id="svg5" version="1.1" viewBox="0 0 32 32" width="32" xmlns="http://www.w3.org/2000/svg" xmlns:svg="http://www.w3.org/2000/svg"><defs id="defs2"/><g id="layer1" transform="translate(-156,-484)"><path d="m 172,494 a 1.999999,1.999999 0 0 0 -2,2 1.999999,1.999999 0 0 0 1,1.72656 V 499 a 1,1 0 0 0 1,1 1,1 0 0 0 1,-1 v -1.26953 A 1.999999,1.999999 0 0 0 174,496 a 1.999999,1.999999 0 0 0 -2,-2 z" id="path25451" style="color:#000000;fill:#00c89f;fill-opacity:1;fill-rule:evenodd;stroke-width:1;stroke-linecap:round;stroke-linejoin:round;stroke-miterlimit:4.1;-inkscape-stroke:none"/><path d="m 168,491 c -1.6447,0 -3,1.3553 -3,3 v 6 c 0,1.6447 1.3553,3 3,3 h 8 c 1.6447,0 3,-1.3553 3,-3 v -6 c 0,-1.6447 -1.3553,-3 -3,-3 z m 0,2 h 8 c 0.5713,0 1,0.4287 1,1 v 6 c 0,0.5713 -0.4287,1 -1,1 h -8 c -0.5713,0 -1,-0.4287 -1,-1 v -6 c 0,-0.5713 0.4287,-1 1,-1 z" id="rect25395" style="color:#000000;fill:#002cba;fill-opacity:1;fill-rule:evenodd;stroke-linecap:round;stroke-linejoin:round;stroke-miterlimit:4.1;-inkscape-stroke:none"/><path d="m 172,486 c -1.6447,0 -3,1.3553 -3,3 v 3 a 1,1 0 0 0 1,1 1,1 0 0 0 1,-1 v -3 c 0,-0.5713 0.4287,-1 1,-1 0.5713,0 1,0.4287 1,1 v 3 a 1,1 0 0 0 1,1 1,1 0 0 0 1,-1 v -3 c 0,-1.6447 -1.3553,-3 -3,-3 z" id="rect25397" style="color:#000000;fill:#002cba;fill-opacity:1;fill-rule:evenodd;stroke-linecap:round;stroke-linejoin:round;stroke-miterlimit:4.1;-inkscape-stroke:none"/><path d="m 159,512 a 1,1 0 0 0 -1,1 1,1 0 0 0 1,1 h 6 a 1,1 0 0 0 1,-1 1,1 0 0 0 -1,-1 z" id="path25423" style="color:#000000;fill:#002cba;fill-opacity:1;fill-rule:evenodd;stroke-linecap:round;stroke-linejoin:round;stroke-miterlimit:4.1;-inkscape-stroke:none"/><path d="m 179,512 a 1,1 0 0 0 -1,1 1,1 0 0 0 1,1 h 6 a 1,1 0 0 0 1,-1 1,1 0 0 0 -1,-1 z" id="path25425" style="color:#000000;fill:#002cba;fill-opacity:1;fill-rule:evenodd;stroke-linecap:round;stroke-linejoin:round;stroke-miterlimit:4.1;-inkscape-stroke:none"/><path d="m 180.58594,505.58594 a 1,1 0 0 0 -0.70703,0.29297 1,1 0 0 0 0,1.41406 l 0.70703,0.70703 -0.70703,0.70703 a 1,1 0 0 0 0,1.41406 1,1 0 0 0 1.41406,0 L 182,509.41406 l 0.70703,0.70703 a 1,1 0 0 0 1.41406,0 1,1 0 0 0 0,-1.41406 L 183.41406,508 l 0.70703,-0.70703 a 1,1 0 0 0 0,-1.41406 1,1 0 0 0 -0.70703,-0.29297 1,1 0 0 0 -0.70703,0.29297 L 182,506.58594 l -0.70703,-0.70703 a 1,1 0 0 0 -0.70703,-0.29297 z" id="path29358" style="color:#000000;fill:#00c89f;fill-opacity:1;fill-rule:evenodd;stroke-linecap:round;stroke-linejoin:round;stroke-miterlimit:4.1;-inkscape-stroke:none"/><path d="m 170.58594,505.58594 a 1,1 0 0 0 -0.70703,0.29297 1,1 0 0 0 0,1.41406 l 0.70703,0.70703 -0.70703,0.70703 a 1,1 0 0 0 0,1.41406 1,1 0 0 0 1.41406,0 L 172,509.41406 l 0.70703,0.70703 a 1,1 0 0 0 1.41406,0 1,1 0 0 0 0,-1.41406 L 173.41406,508 l 0.70703,-0.70703 a 1,1 0 0 0 0,-1.41406 1,1 0 0 0 -0.70703,-0.29297 1,1 0 0 0 -0.70703,0.29297 L 172,506.58594 l -0.70703,-0.70703 a 1,1 0 0 0 -0.70703,-0.29297 z" id="path29356" style="color:#000000;fill:#00c89f;fill-opacity:1;fill-rule:evenodd;stroke-linecap:round;stroke-linejoin:round;stroke-miterlimit:4.1;-inkscape-stroke:none"/><path d="m 160.58594,505.58594 a 1,1 0 0 0 -0.70703,0.29297 1,1 0 0 0 0,1.41406 l 0.70703,0.70703 -0.70703,0.70703 a 1,1 0 0 0 0,1.41406 1,1 0 0 0 1.41406,0 L 162,509.41406 l 0.70703,0.70703 a 1,1 0 0 0 1.41406,0 1,1 0 0 0 0,-1.41406 L 163.41406,508 l 0.70703,-0.70703 a 1,1 0 0 0 0,-1.41406 1,1 0 0 0 -0.70703,-0.29297 1,1 0 0 0 -0.70703,0.29297 L 162,506.58594 l -0.70703,-0.70703 a 1,1 0 0 0 -0.70703,-0.29297 z" id="path25437" style="color:#000000;fill:#00c89f;fill-opacity:1;fill-rule:evenodd;stroke-linecap:round;stroke-linejoin:round;stroke-miterlimit:4.1;-inkscape-stroke:none"/><path d="m 169,512 a 1,1 0 0 0 -1,1 1,1 0 0 0 1,1 h 6 a 1,1 0 0 0 1,-1 1,1 0 0 0 -1,-1 z" id="path25449" style="color:#000000;fill:#002cba;fill-opacity:1;fill-rule:evenodd;stroke-linecap:round;stroke-linejoin:round;stroke-miterlimit:4.1;-inkscape-stroke:none"/></g></svg>